<svg width="45" height="45" viewBox="0 0 45 45" fill="none" xmlns="http://www.w3.org/2000/svg">
<rect width="45" height="45" fill="#202020"/>
<path d="M30.0312 11.6875C29.161 11.6875 28.3264 12.0332 27.7111 12.6486C27.0957 13.2639 26.75 14.0985 26.75 14.9688V16.5475C26.4498 16.4365 26.1326 16.3781 25.8125 16.375H24.875C24.1809 16.3774 23.5125 16.6381 23 17.1062C22.4875 16.6381 21.8191 16.3774 21.125 16.375H20.1875C19.8674 16.3781 19.5502 16.4365 19.25 16.5475V11.2188C19.25 10.3485 18.9043 9.51391 18.2889 8.89856C17.6736 8.2832 16.839 7.9375 15.9688 7.9375C15.0985 7.9375 14.2639 8.2832 13.6486 8.89856C13.0332 9.51391 12.6875 10.3485 12.6875 11.2188V25.75C12.6874 26.4427 12.7565 27.1336 12.8937 27.8125C13.4027 30.3188 14.8247 32.5465 16.8837 34.0633C18.9428 35.5801 21.4919 36.2777 24.0364 36.0207C26.5809 35.7636 28.939 34.5703 30.6532 32.6724C32.3673 30.7745 33.3151 28.3074 33.3125 25.75V14.9688C33.3125 14.0985 32.9668 13.2639 32.3514 12.6486C31.7361 12.0332 30.9015 11.6875 30.0312 11.6875ZM24.875 18.25H25.8125C26.0611 18.25 26.2996 18.3488 26.4754 18.5246C26.6512 18.7004 26.75 18.9389 26.75 19.1875V24.3438C26.75 24.7167 26.6018 25.0744 26.3381 25.3381C26.0744 25.6018 25.7167 25.75 25.3438 25.75C24.9708 25.75 24.6131 25.6018 24.3494 25.3381C24.0857 25.0744 23.9375 24.7167 23.9375 24.3438V19.1875C23.9375 18.9389 24.0363 18.7004 24.2121 18.5246C24.3879 18.3488 24.6264 18.25 24.875 18.25ZM14.5625 25.75V22.9375H20.1875C20.6538 22.9382 21.103 23.1135 21.4466 23.4288C21.6422 23.6019 21.7984 23.8151 21.9047 24.0538C22.0109 24.2925 22.0647 24.5512 22.0625 24.8125C22.0625 25.3098 21.865 25.7867 21.5133 26.1383C21.1617 26.49 20.6848 26.6875 20.1875 26.6875H14.6141C14.58 26.3762 14.5628 26.0632 14.5625 25.75ZM20.1875 18.25H21.125C21.3736 18.25 21.6121 18.3488 21.7879 18.5246C21.9637 18.7004 22.0625 18.9389 22.0625 19.1875V21.5669C21.9031 21.4754 21.737 21.3961 21.5656 21.3297C21.5234 21.3119 21.4784 21.3006 21.4353 21.2847C21.2822 21.2302 21.1256 21.186 20.9666 21.1525C20.963 21.1517 20.9595 21.151 20.956 21.1502C20.9034 21.1388 20.8515 21.1275 20.7988 21.1188C20.5968 21.0836 20.3924 21.0648 20.1875 21.0625H19.25V19.1875C19.25 18.9389 19.3488 18.7004 19.5246 18.5246C19.7004 18.3488 19.9389 18.25 20.1875 18.25ZM14.5625 11.2188C14.5625 10.8458 14.7107 10.4881 14.9744 10.2244C15.2381 9.96066 15.5958 9.8125 15.9688 9.8125C16.3417 9.8125 16.6994 9.96066 16.9631 10.2244C17.2268 10.4881 17.375 10.8458 17.375 11.2188V21.0625H14.5625V11.2188ZM31.4375 25.75C31.4386 27.7412 30.7354 29.6686 29.4524 31.1913C28.1694 32.714 26.3892 33.7339 24.4267 34.0706C22.4642 34.4073 20.4458 34.039 18.7286 33.031C17.0114 32.023 15.7061 30.4402 15.0434 28.5625H20.1875C20.4144 28.5603 20.6407 28.5373 20.8634 28.4941C20.9103 28.4856 20.9572 28.4781 21.0031 28.4678C21.2118 28.4225 21.4162 28.3598 21.6144 28.2803C21.6472 28.2662 21.6781 28.2494 21.7081 28.2353C21.8852 28.1551 22.0557 28.061 22.2181 27.9541C22.2472 27.9353 22.2781 27.9194 22.3063 27.8997C22.4784 27.7804 22.6402 27.6468 22.79 27.5003L22.8837 27.4066C23.0323 27.2554 23.1674 27.0916 23.2878 26.9172L23.2934 26.9106C23.3328 26.9425 23.3797 26.9669 23.4209 26.9969C23.4819 27.0409 23.5438 27.0822 23.6084 27.1225C23.7148 27.1886 23.825 27.2484 23.9384 27.3016C24.0059 27.3334 24.0725 27.3672 24.1428 27.3953C24.2698 27.4439 24.3997 27.4843 24.5319 27.5163C24.5956 27.5331 24.6575 27.5547 24.7194 27.5669C25.1949 27.6627 25.6859 27.6512 26.1565 27.5333C26.627 27.4153 27.0654 27.1939 27.4395 26.8851C27.8137 26.5763 28.1143 26.188 28.3193 25.7484C28.5244 25.3087 28.6288 24.8289 28.625 24.3438V14.9688C28.625 14.5958 28.7732 14.2381 29.0369 13.9744C29.3006 13.7107 29.6583 13.5625 30.0312 13.5625C30.4042 13.5625 30.7619 13.7107 31.0256 13.9744C31.2893 14.2381 31.4375 14.5958 31.4375 14.9688V25.75Z" fill="black"/>
<path d="M31.4375 25.75C31.4386 27.7412 30.7354 29.6686 29.4524 31.1913C28.1694 32.714 26.3892 33.7339 24.4267 34.0706C22.4642 34.4073 20.4458 34.039 18.7286 33.031C17.0114 32.023 15.7061 30.4402 15.0434 28.5625H20.1875C20.4144 28.5603 20.6407 28.5373 20.8634 28.4941C20.9103 28.4856 20.9572 28.4781 21.0031 28.4678C21.2118 28.4225 21.4162 28.3598 21.6144 28.2803C21.6472 28.2662 21.6781 28.2494 21.7081 28.2353C21.8852 28.1551 22.0557 28.061 22.2181 27.9541C22.2472 27.9353 22.2781 27.9194 22.3063 27.8997C22.4784 27.7804 22.6402 27.6468 22.79 27.5003L22.8837 27.4066C23.0323 27.2554 23.1674 27.0916 23.2878 26.9172L23.2934 26.9106C23.3328 26.9425 23.3797 26.9669 23.4209 26.9969C23.4819 27.0409 23.5438 27.0822 23.6084 27.1225C23.7148 27.1886 23.825 27.2484 23.9384 27.3016C24.0059 27.3334 24.0725 27.3672 24.1428 27.3953C24.2698 27.4439 24.3997 27.4843 24.5319 27.5163C24.5956 27.5331 24.6575 27.5547 24.7194 27.5669C25.1949 27.6627 25.6859 27.6512 26.1565 27.5333C26.627 27.4153 27.0654 27.1939 27.4395 26.8851C27.8137 26.5763 28.1143 26.188 28.3193 25.7484C28.5244 25.3087 28.6288 24.8289 28.625 24.3438V14.9688C28.625 14.5958 28.7732 14.2381 29.0369 13.9744C29.3006 13.7107 29.6583 13.5625 30.0312 13.5625C30.4042 13.5625 30.7619 13.7107 31.0256 13.9744C31.2893 14.2381 31.4375 14.5958 31.4375 14.9688V25.75Z" fill="white"/>
<path d="M24.875 18.25H25.8125C26.0611 18.25 26.2996 18.3488 26.4754 18.5246C26.6512 18.7004 26.75 18.9389 26.75 19.1875V24.3438C26.75 24.7167 26.6018 25.0744 26.3381 25.3381C26.0744 25.6018 25.7167 25.75 25.3438 25.75C24.9708 25.75 24.6131 25.6018 24.3494 25.3381C24.0857 25.0744 23.9375 24.7167 23.9375 24.3438V19.1875C23.9375 18.9389 24.0363 18.7004 24.2121 18.5246C24.3879 18.3488 24.6264 18.25 24.875 18.25Z" fill="white"/>
<path d="M20.1875 18.25H21.125C21.3736 18.25 21.6121 18.3488 21.7879 18.5246C21.9637 18.7004 22.0625 18.9389 22.0625 19.1875V21.5669C21.9031 21.4754 21.737 21.3961 21.5656 21.3297C21.5234 21.3119 21.4784 21.3006 21.4353 21.2847C21.2822 21.2302 21.1256 21.186 20.9666 21.1525L20.956 21.1502C20.9034 21.1388 20.8515 21.1275 20.7988 21.1188C20.5968 21.0836 20.3924 21.0648 20.1875 21.0625H19.25V19.1875C19.25 18.9389 19.3488 18.7004 19.5246 18.5246C19.7004 18.3488 19.9389 18.25 20.1875 18.25Z" fill="white"/>
<path d="M14.5625 25.75V22.9375H20.1875C20.6538 22.9382 21.103 23.1135 21.4466 23.4288C21.6422 23.6019 21.7984 23.8151 21.9047 24.0538C22.0109 24.2925 22.0647 24.5512 22.0625 24.8125C22.0625 25.3098 21.865 25.7867 21.5133 26.1383C21.1617 26.49 20.6848 26.6875 20.1875 26.6875H14.6141C14.58 26.3762 14.5628 26.0632 14.5625 25.75Z" fill="white"/>
<path d="M14.5625 11.2188C14.5625 10.8458 14.7107 10.4881 14.9744 10.2244C15.2381 9.96066 15.5958 9.8125 15.9688 9.8125C16.3417 9.8125 16.6994 9.96066 16.9631 10.2244C17.2268 10.4881 17.375 10.8458 17.375 11.2188V21.0625H14.5625V11.2188Z" fill="white"/>
</svg>
